<?xml version="1.0" encoding="UTF-8"?><svg id="Layer_2" xmlns="http://www.w3.org/2000/svg" height="28" width="28" viewBox="0 0 376.78 313.87"><defs><style>.cls-1{fill:#dddcce;stroke-width:0px;}</style></defs><g id="Layer_1-2"><path class="cls-1" d="M54.5,287.87c0,7.37-2.67,14.02-7.53,18.71-4.86,4.7-11.73,7.28-19.34,7.28-15.64,0-26.94-10.75-27.63-26.21h0s23.14,0,23.14,0c.35,2.46,1.92,3.98,4.19,3.98,2.38,0,4.05-1.94,4.05-4.73v-43.44h23.12v44.41ZM107.54,243.46l19.51,68.86h-25.88l-2.24-9.05-.09-.35h-17.2l-.09.35-2.24,9.05h-25.88l19.51-68.86h34.58ZM94.89,283l-.12-.56-4.07-18.42-.45-2.04-.45,2.04-4.07,18.42-.12.56h9.29ZM160.71,265.21c4.66,0,8.4,2.4,10.57,6.79l20.6-12.31c-3.21-5.62-7.53-10.02-12.83-13.08-5.41-3.12-11.61-4.71-18.41-4.71h-.04c-9.72,0-18.78,3.72-25.51,10.45-6.74,6.74-10.45,15.81-10.45,25.53s3.71,18.79,10.45,25.53c6.74,6.74,15.8,10.45,25.52,10.45h.03c6.81,0,13.01-1.59,18.42-4.71,5.3-3.06,9.61-7.46,12.83-13.08l-20.6-12.31c-2.17,4.38-5.91,6.79-10.57,6.79-6.95,0-12.19-5.45-12.19-12.67,0-3.53,1.24-6.75,3.49-9.08,2.24-2.32,5.33-3.59,8.7-3.59ZM313.8,243.46l19.51,68.86h-25.88l-2.24-9.05-.09-.35h-17.2l-.09.35-2.24,9.05h-51.2s-15.48-33.17-15.48-33.17l-.88-1.88v35.05h-23.12v-68.86h23.12v26.15l.85-1.36,15.47-24.79h26.22l-19.3,29.43-.15.22.12.24,18.99,37.15,19-67.04h34.58ZM301.15,283l-.12-.56-4.07-18.42-.45-2.04-.45,2.04-4.07,18.42-.12.56h9.29ZM359.72,290.95v-47.49h-23.12v68.86h40.17v-21.37h-17.06ZM366.91,248.31c0-2.72,2.07-4.86,4.86-4.86s4.89,2.14,4.89,4.86-2.09,4.86-4.89,4.86-4.86-2.09-4.86-4.86ZM371.77,252.36c2.26,0,3.95-1.71,3.95-4.05s-1.69-4.05-3.95-4.05-3.95,1.71-3.95,4.05,1.71,4.05,3.95,4.05ZM371.85,245.52c1.25,0,2.05.72,2.22,1.88h-.92c-.1-.6-.51-1.18-1.3-1.18-.91,0-1.56.77-1.56,2.07s.63,2.09,1.56,2.09c.79,0,1.25-.58,1.37-1.23h.89c-.19,1.23-1.04,1.95-2.26,1.95-1.47,0-2.46-1.11-2.46-2.82s.99-2.77,2.46-2.77Z"/><path class="cls-1" d="M357.24,101.36l-25.51-23.63-2.17-11.06-14.53-12.02-.7-54.38-19.77,44.94-2.98-.08-.14-.41L276.49,0l-8.43,51.97-.5.03-132.47,8.31L19.55,119.3v.78c1.02.89,5.31,4.39,12.74,7.12,10.11,3.71,21.27,4.34,33.17,1.87,18.56-3.86,49.21-28.18,63.93-39.87,2.08-1.65,3.88-3.08,5.27-4.15l1.08-.83-.07,1.36c-2.13,41.36-11.9,113.34-13.25,123.12h12.2s15.61-88.94,15.61-88.94l13.97-.88-.1.75-11.39,89.05h13.22s15.35-90.81,15.35-90.81l59.32-3.96-.08.74-9.85,93.97h12s15.44-95.63,15.44-95.63l15.3-.96-.07.73-9.26,95.84h13.56s12.14-104.79,12.14-104.79l.24-.16,12.38-8.19.32.17,40.49,20.83,2.42-3.64-27.31-18.89,1.73-2.61,32.17,14.54,5.02-4.5ZM143.54,76.35l3.93-11.72,24.1,14.91-28.03-3.19ZM175.46,84.48l3.93-11.72,24.1,14.91-28.03-3.19ZM197.77,73.28l3.93-11.72,24.1,14.91-28.03-3.19ZM232.13,80.51l3.93-11.72,24.1,14.91-28.03-3.19ZM252.79,69.66l5.55-11.05,21.76,18.15-27.3-7.11ZM323.02,78.39h-.32c-1.52,0-9.37-.21-14.97-4.4-1.49-1.12-2.87-2.69-4.08-4.66-.45-.73-.88-1.52-1.28-2.35-1.76-3.67-2.48-7.13-2.48-7.16l-.03-.14.74-1.01h.16s.72.03,1.98.27c.21.04.44.08.68.14,1.33.29,3.35.83,5.86,1.85.6.23,1.18.48,1.71.74.76.35,1.53.72,2.29,1.11,1.34.7,2.63,1.65,3.82,2.83.36.36.72.74,1.06,1.13,3.95,4.59,5.56,10.53,5.58,10.59l.04.15-.76.92ZM317.84,69.82c1.76,2.32,2.95,5.49,3.28,6.43-1-.13-4.35-.62-6.93-1.43,2.02-.88,3.43-2.79,3.65-5ZM309.68,63.44c-2.16.77-3.72,2.72-4.01,5-1.57-2.52-2.89-6.2-3.28-7.34,1.06.22,4.23.94,7.29,2.35Z"/></g></svg>